<svg xmlns="http://www.w3.org/2000/svg" xmlns:xlink="http://www.w3.org/1999/xlink" width="160" height="160" fill="none" xmlns:v="https://www.mindvalley.com"><circle cx="80" cy="80" r="80" fill="#fff"/><circle cx="80" cy="80" r="76.5" stroke="#ebedef"/><rect x="34.575" y="112.513" width="90.85" height="16" rx="4" fill="#0f131a"/><g fill="#fff"><use xlink:href="#B"/><path d="M51.741 122.724v1.37h4.554v-1.37h-1.572v-4.504h1.572v-1.309h-4.554v1.309h1.582v4.504h-1.582zm6.484 1.37h1.411v-5.017l-.02-.151.131.252 3.637 4.916h1.38v-7.183h-1.4v4.916l.02.212-.131-.262-3.587-4.866h-1.441v7.183zm12.402 0h1.461v-2.488h1.642c1.118 0 1.501.312 1.501 1.249v.806c0 .172.04.363.161.433h1.552c-.131-.08-.171-.251-.171-.413v-.846c0-1.118-.393-1.652-1.239-1.874.897-.272 1.36-.836 1.36-1.834 0-1.431-.897-2.216-3.073-2.216h-3.194v7.183zm3.174-5.924c1.098 0 1.582.292 1.582 1.038v.06c0 .796-.635 1.078-1.622 1.078h-1.673v-2.176h1.713zm4.781 4.554v1.37h4.554v-1.37h-1.572v-4.504h1.572v-1.309h-4.554v1.309h1.582v4.504h-1.582zm6.484 1.37h5.894v-1.299h-4.474v-1.693h3.627v-1.249h-3.627v-1.693h4.282v-1.249h-5.703v7.183z"/><use xlink:href="#B" x="48.613"/><path d="M103.657 124.266c1.542 0 2.378-.806 2.579-1.985l.101 1.813h1.159v-3.808h-3.678v1.249h2.187c-.091.837-.706 1.441-2.005 1.441-1.381 0-2.066-.705-2.056-2.227v-.362c0-1.582.726-2.308 2.116-2.308 1.199 0 1.693.554 1.793 1.33h1.603c-.182-1.743-1.411-2.65-3.406-2.65-2.176 0-3.617 1.25-3.617 3.587v.434c0 2.408 1.229 3.486 3.224 3.486zm9.171 0c2.156 0 3.597-1.149 3.597-3.537v-.383c0-2.337-1.481-3.587-3.587-3.587-2.116 0-3.577 1.28-3.577 3.587v.383c0 2.439 1.35 3.537 3.567 3.537zm.01-1.34c-1.34 0-2.056-.746-2.056-2.227v-.312c0-1.532.716-2.308 2.056-2.308 1.33 0 2.065.736 2.065 2.318v.302c0 1.531-.735 2.227-2.065 2.227z"/></g><path d="M36.561 89.58v20.393h9.968c7.092 0 11.535-3.133 11.535-9.912v-.484c0-6.836-4.415-9.997-11.677-9.997h-9.826zm9.484 5.468c3.759 0 5.297 1.31 5.297 4.585v.285c0 3.161-1.51 4.5-5.184 4.5h-3.105v-9.37h2.991zm13.679 9.001v5.924h15.807v-5.924h-4.756V95.39h4.756v-5.81H59.724v5.81h4.728v8.659h-4.728zm5.611-16.263h4.529l6.067-6.209h-6.152l-4.443 6.209zm11.357 22.187h6.807l1.367-3.503h8.601l1.396 3.503h6.778L92.812 89.58h-7.291l-8.829 20.393zm10.026-8.231l2.392-6.095 2.449 6.095h-4.842zm26.456 8.8c7.234 0 10.452-2.819 10.452-7.063 0-4.329-3.247-5.782-9.199-6.237-4.671-.342-5.64-.684-5.64-1.737 0-.94.798-1.623 3.304-1.623 2.621 0 4.159.541 4.529 2.25h6.864v-.028c-.997-5.041-4.614-7.092-11.222-7.092-6.522 0-10.082 2.677-10.082 6.836 0 4.244 3.047 5.696 8.573 6.152 4.898.399 6.322.57 6.322 1.908 0 1.083-1.053 1.652-3.503 1.652-2.677 0-4.528-.655-4.927-2.563v-.029h-7.149v.029c.684 4.984 3.674 7.547 11.678 7.547zm-74.91-43.359V80h34.511V67.183h-10.08V32.205H51.481c-1.469 5.006-4.406 7.476-10.08 8.01v9.813h7.743v17.156h-10.88zm60.311 13.818c14.552 0 22.162-6.341 22.162-17.156 0-10.213-6.208-16.021-17.489-16.021-6.208 0-10.347 2.003-13.017 4.94l1.201-9.212h14.485c11.215 0 12.95-1.535 12.95-11.348H80.285l-3.471 25.7 13.15 3.271.4-.267c1.802-2.136 4.673-3.671 8.878-3.671 4.672 0 7.476 1.936 7.476 6.008 0 3.938-2.87 6.141-7.943 6.141-5.006 0-7.677-2.069-7.877-5.14v-.2H75.946v.067c.534 10.614 6.809 16.889 22.629 16.889z" fill="#0f131a"/><defs ><path id="B" d="M47.132 124.266c2.086 0 3.113-.967 3.103-2.318 0-1.541-1.169-1.934-2.912-2.136-1.37-.151-1.975-.302-1.975-.937 0-.503.373-.886 1.431-.886 1.139 0 1.703.322 1.824 1.168h1.542c-.161-1.581-1.209-2.398-3.335-2.398-1.985 0-2.952.937-2.952 2.147 0 1.541 1.149 1.914 2.71 2.105 1.431.162 2.207.272 2.197.998 0 .584-.494.977-1.602.977-1.249 0-1.894-.403-2.005-1.4h-1.582c.181 1.773 1.118 2.68 3.557 2.68z"/></defs></svg>